<svg width="18" height="30" xmlns="http://www.w3.org/2000/svg"><path d="m17.2351324.00484237-4.5542875.00211854S12.588575 0 12.4226103 0c-.934464 0-5.66016389.2596343-6.94588899 5.3269483-.0201261.0562169-.45264817 1.32461538-.45957125 4.27445145H.69684742c-.38319042 0-.69423708.31100883-.69423708.69423705v3.9808071c0 .3832282.31104666.6942371.69423708.6942371h4.72501891v14.2972509c0 .3832283.31100883.6942749.69423707.6942749h5.4102522c.3831904 0 .6942749-.3110466.6942749-.6942749V14.9852081h4.7402648c.3832661 0 .6942749-.3110089.6942749-.6942371v-3.9953342c0-.38322822-.3110088-.69423705-.6942749-.69423705h-4.7306179V7.89283733c0-1.13788147.7220429-2.35346785 2.749256-2.35346785h2.255599c.3831904 0 .6941993-.31100882.6941993-.69423707V.69907945c0-.38319042-.3103279-.69423708-.6941993-.69423708Zm-.6942749 4.14605296h-1.5613241c-2.8582471 0-4.1376923 1.87933166-4.1376923 3.74197983v2.40279954c0 .3832282.3110088.694237.6941993.694237h4.7305422v2.6068979h-4.740227c-.3832661 0-.6942749.3110088-.6942749.6942371v14.282686H6.81034048V14.2764439c0-.3832283-.31100883-.6942371-.69423708-.6942371H1.39108449v-2.5922951h4.32582598c.18673392 0 .36514502-.0749811.49569987-.2082597.13055486-.1332787.20201765-.3130896.19857503-.4998613-.06177806-3.15741491.37210593-4.4869105.39295082-4.55424972 1.02397226-4.02593947 4.55973521-4.33906683 5.61847411-4.33906683.096507 0 .1541236.00279949.2103784.0048802h3.9078688v2.75754098Z" fill="#000" fill-rule="nonzero"/></svg>