<svg width="117" height="140" xmlns="http://www.w3.org/2000/svg"><path d="M109.9332 90.8783333 108.54257143 91.37l.71035714 1.2883333c.52482857.955-.51145714 2.2966667-1.81517143 3.8233334-.71035714.8316666-1.32377144 1.55-1.56947144 2.285C105.3150429 100.42 107.01154286 101.163333 107.8272 101.52c.41952857.183333 1.20175714.525 1.26527143.77.00501428.015.09025714.383333-.66188572 1.385-.66188571.878333-1.20008571 1.425-1.63465711 1.866667-2.0324572 2.065-2.0023715 2.733333-.9811286 10.876666.117.936667-.1253571 1.706667-.7638429 2.428334-2.3784428 2.685-9.7561285 4.165-20.7741857 4.165-5.3118 0-9.5288143-.356667-9.5706-.36l-.8490857-.073334L65.3645571 139.51c-.9560571.028333-2.7912857.07-5.2081714.07-25.2770143 0-42.8604428-3.935-47.0306567-10.525-1.402329-2.216667-1.382272-4.76.0585-7.776667 6.3982281-13.381666 1.198414-23.193333-4.307272-33.5816663C4.696714 79.81.3744 71.6533333.3744 61.0033333.3744 42.785 6.115757.41333333 59.2905857.41333333c17.5884429 0 30.654 4.50666667 38.8323 13.39666667 9.73774287 10.585 10.70048573 25.2933333 9.79457144 35.77-1.37558574 15.9216667 4.4694 29.0166667 8.13985715 34.245.71537142 1.02.60338571 1.7433333.4563 2.1966667-.74378572 2.3316666-5.11122858 4.3383333-6.58041429 4.8566666ZM36.6594429 54.6l1.7733857-1.7683333c-3.3111-3.3016667-3.3111-8.675 0-11.9783334C40.0390714 39.2516667 42.1718143 38.37 44.4432857 38.37h.0016714c2.2681286 0 4.4025429.88 6.0054429 2.48 3.3127714 3.3033333 3.3127714 8.68 0 11.985l1.7733857 1.7683333c4.2905572-4.28 4.2905572-11.2433333 0-15.5216666C50.1478714 37.01 47.385 35.8683333 44.4466286 35.8683333h-.0016715C41.5049143 35.87 38.7420429 37.0116667 36.6627857 39.085c-2.0775857 2.0716667-3.2225143 4.8266667-3.2225143 7.7566667 0 2.93 1.1399143 5.6866666 3.2191715 7.7583333Zm-5.9185286 5.9033333c-7.5531857-7.5333333-7.5531857-19.7866666 0-27.3183333 7.5565286-7.535 19.8498857-7.535 27.4014-.005 3.6604286 3.65 5.6761714 8.5033333 5.6761714 13.6616667-.0016714 5.16-2.0190857 10.0116666-5.6795143 13.6616666l1.7733857 1.7683334c4.1351143-4.1233334 6.4132715-9.6033334 6.4149429-15.43 0-5.8283334-2.2764857-11.3066667-6.4116-15.43-4.1317714-4.12-9.6257571-6.3883334-15.4690714-6.3883334h-.0016715c-5.8449857 0-11.3406428 2.27-15.4757571 6.3933334-8.5309714 8.5066666-8.5309714 22.345 0 30.8533333l1.7717143-1.7666667ZM67.6026 23.745c-12.7713857-12.7383333-33.5505857-12.7333333-46.3253143.005C8.5059 36.4866667 8.5059 57.2066667 21.2756143 69.94L23.049 68.1716667c-11.791929-11.76-11.791929-30.8933334.0016714-42.655 11.7952715-11.7583334 30.9849429-11.765 42.7802143-.005C71.5455 31.21 74.6928 38.785 74.6928 46.8416667c-.0016714 8.0566666-3.1489714 15.6316666-8.8635857 21.33L67.6026 69.94c12.7713857-12.7366667 12.7730571-33.4583333 0-46.195Z" fill="#000" fill-rule="nonzero"/></svg>