<?xml version="1.0" standalone="no"?>
<!DOCTYPE svg PUBLIC "-//W3C//DTD SVG 20010904//EN"
 "http://www.w3.org/TR/2001/REC-SVG-20010904/DTD/svg10.dtd">
<svg version="1.0" xmlns="http://www.w3.org/2000/svg"
 width="500.000000pt" height="500.000000pt" viewBox="0 0 500.000000 500.000000"
 preserveAspectRatio="xMidYMid meet">

<g transform="translate(0.000000,500.000000) scale(0.100000,-0.100000)"
fill="#000000" stroke="none">
<path d="M2006 3604 c-196 -61 -588 -131 -1005 -179 -74 -9 -137 -18 -139 -20
-3 -2 7 -32 21 -67 13 -35 30 -89 37 -121 13 -56 14 -57 44 -52 17 2 97 12
179 21 81 8 188 21 237 28 l90 12 0 -153 0 -153 -360 0 -360 0 0 -135 0 -135
360 0 360 0 0 -160 0 -160 -265 0 -265 0 0 -530 0 -530 130 0 130 0 0 55 0 55
398 -2 397 -3 3 -42 3 -43 135 0 134 0 0 520 0 520 -262 2 -263 3 0 155 0 155
343 3 342 2 0 135 0 135 -342 2 -343 3 -3 172 -2 172 37 7 c101 17 311 67 423
100 69 20 133 39 143 41 9 3 17 9 17 13 0 14 -211 205 -228 207 -10 0 -66 -14
-126 -33z m144 -99 c18 -19 32 -37 29 -39 -7 -7 -329 -83 -431 -102 l-98 -18
0 -258 0 -258 343 -2 342 -3 0 -40 0 -40 -342 -3 -343 -2 0 -250 0 -250 260 0
260 0 0 -430 0 -430 -40 0 -40 0 0 45 0 45 -490 0 -490 0 0 -50 0 -50 -40 0
-40 0 0 435 0 435 270 0 270 0 0 250 0 250 -360 0 -360 0 0 45 0 45 360 0 360
0 0 251 0 252 -47 -7 c-46 -6 -395 -50 -476 -60 -33 -4 -39 -1 -48 21 -18 48
-46 39 261 78 320 41 679 112 805 159 22 8 42 15 46 15 3 1 20 -15 39 -34z"/>
<path d="M1110 1855 l0 -305 490 0 490 0 0 305 0 305 -490 0 -490 0 0 -305z
m885 0 l0 -210 -397 -3 -398 -2 0 215 0 215 398 -2 397 -3 0 -210z"/>
<path d="M246 3528 c-43 -55 -74 -103 -70 -108 5 -4 56 -34 114 -66 132 -72
323 -187 374 -225 21 -15 42 -26 47 -24 6 5 136 184 152 212 4 6 -7 19 -26 31
-17 11 -74 45 -126 77 -52 31 -160 90 -241 130 l-146 73 -78 -100z m288 -110
c72 -39 148 -82 168 -96 l37 -24 -26 -34 c-14 -19 -27 -34 -30 -34 -2 0 -23
13 -46 29 -23 15 -103 63 -177 106 -74 42 -139 80 -143 84 -4 4 2 19 13 34 26
32 26 32 204 -65z"/>
<path d="M3645 3608 c-208 -43 -619 -89 -915 -103 -74 -4 -141 -8 -148 -11 -9
-3 -8 -13 8 -43 11 -22 28 -70 38 -108 l19 -68 89 0 c49 0 153 4 232 8 l143 8
-3 -33 -3 -33 -267 -3 -268 -2 0 -115 0 -115 268 -2 267 -3 3 -32 3 -33 -235
0 -236 0 0 -415 0 -415 233 -2 232 -3 3 -27 3 -28 -235 0 -236 0 0 -120 0
-120 235 0 235 0 0 -59 c0 -33 -3 -62 -7 -64 -5 -3 -125 -15 -268 -27 -143
-13 -263 -26 -267 -29 -6 -6 28 -240 36 -248 1 -2 204 19 451 47 496 55 476
54 455 40 -13 -9 -13 -12 3 -21 44 -26 125 -99 156 -141 l35 -47 30 22 c66 46
217 202 275 283 72 102 146 251 196 394 60 175 115 488 131 753 l7 107 133 0
134 0 0 -37 c0 -21 -4 -144 -10 -273 -20 -487 -45 -778 -75 -877 -21 -72 -35
-75 -248 -63 -93 6 -171 9 -173 7 -2 -2 10 -29 26 -60 17 -30 38 -89 46 -129
8 -40 17 -74 19 -77 3 -2 82 -4 177 -5 145 -1 182 2 231 18 71 23 130 78 163
150 59 129 90 508 110 1329 l7 287 -264 0 -264 0 3 275 3 275 -135 0 -136 0 0
-275 0 -275 -95 0 -95 0 0 75 0 75 -265 0 -265 0 0 50 c0 33 4 50 13 50 57 0
482 72 493 83 5 4 -118 202 -135 218 -3 3 -46 -2 -96 -13z m70 -114 c9 -14 15
-27 13 -30 -2 -2 -89 -15 -194 -29 -104 -15 -204 -28 -221 -31 l-33 -5 0 -134
0 -135 265 0 265 0 0 -25 0 -25 -265 0 -265 0 0 -125 0 -125 240 0 240 0 0
-325 0 -325 -240 0 -240 0 0 -125 0 -125 246 0 245 0 -3 -22 -3 -23 -242 -3
-243 -2 0 -146 0 -145 58 6 c31 3 140 14 241 25 101 11 188 20 193 20 13 0 9
-50 -4 -55 -7 -2 -254 -31 -548 -64 -563 -63 -550 -63 -550 -14 0 18 7 23 43
28 37 5 460 45 480 45 4 0 7 68 7 150 l0 150 -235 0 -235 0 0 25 0 25 235 0
235 0 0 125 0 125 -235 0 -235 0 2 323 3 322 233 3 232 2 0 125 0 125 -270 0
-270 0 0 25 0 25 270 0 270 0 0 130 c0 97 -3 130 -12 130 -7 0 -114 -7 -237
-15 -123 -8 -225 -14 -226 -12 -9 9 -15 47 -8 47 122 0 718 64 878 95 99 18
101 18 120 -11z m551 -244 l-7 -270 267 0 267 0 -7 -202 c-22 -677 -37 -936
-61 -1103 -25 -170 -57 -239 -123 -271 -47 -22 -170 -35 -259 -28 l-71 7 -10
36 -9 37 131 0 c123 -1 133 0 165 23 18 13 42 43 52 65 47 107 78 464 95 1099
l7 247 -220 0 c-251 0 -233 7 -233 -89 0 -88 -27 -352 -50 -486 -50 -293 -129
-511 -253 -694 -54 -80 -202 -241 -222 -241 -13 0 -71 58 -64 64 2 2 40 35 84
73 44 38 81 75 83 82 1 7 24 45 51 84 129 191 209 422 255 734 12 82 25 224
39 435 l2 37 -145 3 -145 3 0 40 0 40 148 3 147 3 0 269 0 270 47 0 46 0 -7
-270z m-478 -297 l3 -33 -210 0 -211 0 0 35 0 35 208 -2 207 -3 3 -32z m288
-210 c-3 -32 -11 -107 -16 -168 -27 -281 -92 -536 -178 -700 l-21 -40 -1 98 0
97 -245 0 -245 0 0 30 0 30 240 0 240 0 0 355 0 355 115 0 116 0 -5 -57z
m-252 -978 c-20 -30 -20 -30 -214 -50 -85 -8 -174 -18 -197 -21 l-43 -5 0 50
0 51 235 0 235 0 -16 -25z"/>
<path d="M2790 2655 l0 -135 205 0 205 0 0 135 0 135 -205 0 -205 0 0 -135z
m318 3 l-3 -43 -107 -3 -108 -3 0 46 0 45 111 0 110 0 -3 -42z"/>
<path d="M3280 2655 l0 -135 210 0 210 0 0 135 0 135 -210 0 -210 0 0 -135z
m320 0 l0 -45 -115 0 -115 0 0 45 0 45 115 0 115 0 0 -45z"/>
<path d="M2790 2355 l0 -135 205 0 205 0 0 135 0 135 -205 0 -205 0 0 -135z
m320 0 l0 -45 -110 0 -110 0 0 45 0 45 110 0 110 0 0 -45z"/>
<path d="M3280 2355 l0 -135 210 0 210 0 0 135 0 135 -210 0 -210 0 0 -135z
m320 0 l0 -45 -115 0 -115 0 0 45 0 45 115 0 115 0 0 -45z"/>
<path d="M126 2851 c-42 -55 -76 -103 -76 -108 0 -4 67 -44 148 -88 81 -44
201 -114 266 -156 139 -89 110 -97 216 60 51 75 61 95 49 102 -83 51 -248 144
-373 209 l-154 80 -76 -99z m167 -52 c62 -32 280 -151 306 -168 11 -7 9 -15
-13 -44 l-27 -35 -129 77 c-70 43 -153 91 -184 107 -31 16 -56 33 -56 37 0 8
32 56 38 57 1 0 31 -14 65 -31z"/>
<path d="M535 2168 c-124 -231 -235 -420 -342 -577 -46 -68 -83 -124 -81 -125
2 -1 51 -41 110 -89 59 -48 111 -87 115 -87 14 0 273 438 392 665 l110 209
-67 62 c-37 33 -83 75 -103 92 l-37 32 -97 -182z m159 3 l27 -29 -41 -83 c-60
-117 -178 -330 -267 -478 -108 -180 -92 -165 -137 -128 l-38 32 83 130 c92
144 227 375 292 502 23 46 45 83 48 83 3 0 18 -13 33 -29z"/>
</g>
</svg>
