<svg width="29" height="29" xmlns="http://www.w3.org/2000/svg"><path d="M23.603515.0009765c-.4860925.0003125-.9701162.17666037-1.3232412.52978525L20.529785 2.28125l-1.7846675 1.784668L2.83203125 19.9765625c-.03375.03375-.05068362.0747462-.07568362.1147462-.1375.075-.2478515.2000775-.2978515.3613275l-2.42919925 7.734375c-.07.2225-.01.467325.15625.632325C.30429688 28.9368362.4625 29 .625 29c.065 0 .13037113-.0092463.19287113-.0292975l7.84179637-2.5415038c.12375-.04.22041-.1210375.29541-.217285.02125-.01625.04591875-.023945.06591875-.043945L24.93164 10.2573237l3.5351575-3.5375972c.73125-.73374988.7312488-1.92255838 0-2.6538085L24.93164.53076175c-.35375-.354375-.8420312-.53009763-1.328125-.52978525Zm0 1.237793c.1618763 0 .3255875.05765625.4443363.17578125L27.5830075 4.949707c.24375.24375.2437488.64003912 0 .88378912l-1.3085937 1.30859375-4.418945-4.41894537 1.3085937-1.30859375c.1175-.118125.2775775-.17578125.4394525-.17578125ZM20.97168 3.60693362l4.418945 4.41894513-.9008787.90332-2.2094725-2.21191363L20.06836 4.51025387l.90332-.90332025ZM19.18457 5.394043l.88379.883789L5.7299805 20.6162112 4.29199225 20.28418 19.18457 5.394043Zm1.7675788 1.76757812.4443362.4418945.4418938.44189438L7.5 22.3813475l-.94726562.0390625v-.859375L20.9521488 7.16162112Zm1.7675775 1.76757763.8837887.88378995L8.80859375 24.60791l-.34912125-1.4208988L22.7197263 8.92919875ZM3.4765625 21.37793l1.82617188.4223625v1.2695312c0 .17.06793012.3354113.19042962.4516613.12250013.1187487.29523438.1770887.4589845.1733387l1.33056638-.05371.43945262 1.7749013-2.96142525.9594737c-.03000012-.08375-.07410137-.1632425-.14160162-.2294925L2.8515625 24.3784175c-.0775-.0775-.16980462-.1226113-.26855475-.1513663L3.4765625 21.37793ZM2.1875 25.4819337l1.30615238 1.3061525-1.91162113.617675L2.1875 25.4819337Z" fill="#000" fill-rule="nonzero"/></svg>