<svg width="140" height="176" xmlns="http://www.w3.org/2000/svg"><g fill="#000" fill-rule="evenodd"><path d="M96.14686681 18.02800804c-7.58025665 2.03112365 3.38520604 12.63376094 8.22409696 7.95197802 2.65065936-2.74136568-4.89639647-8.16659154-8.22409696-7.95197802Z"/><path d="M66.19756187 19.95952924c1.90721647 9.64458098 2.46035054 14.23565766 11.85711729 16.45709004-8.1908961-15.4083274-.11501094-25.69674882 10.66903905-25.87816152 6.19297326.37172147 11.49429196-5.11100986 20.8578579 4.56677199C112.72786398 4.1065663 101.39067993-.3030977 89.34325386.21683555c-2.5267522.6770412-22.5836618-3.42730296-23.14569199 19.7426937Z"/><path d="M105.01480413 35.96308765c8.5051121-3.63302028 4.28575684-9.2728596 1.42048402-9.8591945-10.9411579 9.70208658-16.23358045-12.57625547-19.5944818-4.90529259-.15710795 9.52067397 8.86793741 17.93507966 18.17399778 14.76448709Z"/><path d="M96.18006758 10.57165862c-4.12864893-.24781428-8.62901924 5.69734474-3.36090134 7.67096288 2.55995298-8.13339063 20.14761591 9.49636919 19.09885327 13.16259037.3385206 1.2633761-.12390714 2.06432447-.5863349 2.86527282 1.47798954 2.98917983 8.25729778.49562852 6.102267-5.02030366-2.24573708-10.90795708-14.9370035-20.37112543-21.25388403-18.67852241Z"/><path d="M109.94440142 36.67332968C89.14404894 44.95493219 81.4487814 21.28930694 87.4271412 18.33332783c2.65065936-2.74136568 1.5111904-4.46716954 3.699422-6.40758687-9.98310164.64384045-13.55861644 4.98710276-13.93033787 11.18007616-2.34533952 11.4610912 11.2707824 19.32236286 19.86660078 21.08136748 7.33244236 2.09752529 17.90187883-1.4115879 12.8815753-7.51385492ZM64.30575395 58.38074529c4.83889091-4.68178292-14.50777664-13.71572436-9.72639115-31.24588177-18.61212087 6.34118519.75885134 35.67985054 9.72639115 31.24588177Z"/><path d="M113.2477972 16.15399235c5.14421076 4.0379426 11.85711738 16.45709007 2.55105687 19.62768269-2.130726 14.78879169-24.96220204 15.4901376-34.87890209 1.22127913-7.58025651 2.0311236 14.9038028 27.82747492 34.22616566 16.55669253 19.66088381-10.00740609 13.13828558-39.40357715-2.23684105-38.66903045-1.26337602.33852065-.46242775.80094835.33852061 1.2633761Z"/><path d="M56.09055315 22.66769407c-1.45368488 17.31554386 2.98028376 26.2830837 19.46167858 34.7306903 5.2681178 1.97361809 24.15235761 11.80850788 30.62634606.59523096-2.98917996 1.47798957-19.84229612-.77664357-29.17266123-17.91077496C64.06683587 34.74832094 62.4074336 20.97509098 65.76833494 13.3041281c-9.39676674-2.22143238-8.84363267 2.3696443-9.6777818 9.36356597ZM113.0331838 12.82629185c23.38461013 3.88973075 20.6918538 41.84851911-3.52690548 44.9527101-1.0487626 3.6662211 25.41573338 11.46998708 29.64398466-10.65124698 6.32577707-29.45367608-22.4176572-40.70904992-26.11707917-34.30146312Z"/><path d="M69.02073772 55.76328683c-3.20379343-1.849711-3.2369942 5.60663842 5.4495305 12.75766809 15.30872496 14.17815219 42.0542369 10.39692023 49.5769875-4.48257804-5.85445265.89165465-10.78404993.18141261-15.58974-2.59315384-6.56469477 5.82125189-15.6229409 4.86319562-22.95538326 2.76567034-9.73528735-3.48480849-11.21327684-6.4739884-16.48139474-8.44760655ZM14.68666941 98.08074633c-.4624275.80094792-.4624275.80094792-1.72580386 1.13946896 2.27893785 3.45160767 12.4766532 6.13546736 15.80435377 5.9208539-1.72580386 1.13946896-1.3872835 2.4028455-2.65065936 2.74136568 4.0047418 2.31213875 13.98784343 1.6682983 15.25121929 1.32977813.33852085 1.26337567.33852085 1.26337567-.12390715 2.06432446 2.06432472.12390671 3.32770058-.21461346 7.58025656-2.0311237 5.97835993-2.95597914 13.46791-10.3791274 13.12938965-11.64250394-.33852086-1.26337567-1.60189672-.9248555-2.86527307-.58633446-3.11308686 3.54231361-7.48955008 7.42314826-13.00548192 9.57817866 2.18823136-1.94041689 9.89239506-6.03586505 11.4035852-10.50303416-1.60189671-.9248555-4.12864834-.2478151-7.79486977-1.2965773-5.63983908 4.21935482-7.95197808 8.22409704-16.333183 9.79279299 5.97835985-2.9559792 9.76848842-3.97154146 14.26885878-9.91670057-4.00474179-2.31213875-13.86393628-3.73262277-17.77797191-.652736l-.80094836-.46242775c-2.52675221.67704122-5.85445279.89165468-8.8436325 2.36964383 6.77930829-2.4935514 10.56943636-3.5091128 11.49429186-5.1110095-.33852036-1.26337655-4.34326215-3.5755153-11.21327692-6.47398846-2.98917972 1.47798914-6.3168803 1.6926026-9.64458087 1.90721607 2.52675222-.67704121 6.3168803-1.6926026 7.2417358-3.29449932-3.66622094-1.04876307-9.82599341-8.87683394-12.69126646-9.46316839 3.32770055-.21461348 9.82599388 8.87683307 13.61612195 7.86127168-1.94041707-2.18823204-2.95597906-5.97835988-5.23491699-9.4299676 2.27893793 3.45160772 4.55787578 6.90321538 6.03586535 9.89239535 1.13946922 1.72580342 4.0047417 2.3121387 6.40758678 3.69942195-.09070608-5.39202548-1.10626806-9.18215332-3.04668564-11.3703845 7.084628 6.22617417-1.88291157 10.66014251 11.51859713 15.19371316 1.60189671.9248555 3.66622093 1.04876307 4.92959729.71024203 1.51119014-4.4671691-.98236142-11.24647691-4.86319587-15.62294047 4.46716954 1.51119039 6.25047887 13.22009583 7.26604094 17.01022372 4.4671692 1.51119078 8.934339 3.02238073 10.66014235 1.88291263-1.35408243-5.05350443-5.5734374-10.69334405-8.65332369-14.60737951 3.88083465 4.37646321 7.76166926 8.7529263 10.7176484 14.73128622 2.52675214-.67704126 4.9295972.71024199 6.99392142.83414956.37172163-6.19297374-5.44953025-12.75766851-8.52941654-16.67170398l-1.849711 3.20379343c-1.35408235-5.05350438-8.10018973-10.01630244-12.10493152-12.32844119-.46242775.80094836-.12390714 2.06432447-.5863349 2.86527283-2.74136567-2.65065936-5.6066385-3.23699425-9.2728596-4.28575685.80094837.46242775.33852062 1.26337611-.12390713 2.06432447-1.94041733-2.1882316-5.2681179-1.97361814-10.1977151-2.68386013-.1239071 2.06432438-.1239071 2.06432438-.24781424 4.12864885-1.94041757-2.18823118-7.2085352-4.16184974-9.73528739-3.48480851.33852035 1.26337653-.9248555 1.60189671-.58633465 2.86527238-2.40284505-1.38728323-3.6662214-1.04876219-7.91877745.767748 1.01556204 3.79012788 2.4935516 6.77930784 4.0954483 7.70416333 0 0-2.0643247-.1239067-2.5267522.67704122 1.23017525 7.11782888 7.08462804 6.2261742 2.36964396 8.84363317 2.6174587 4.71498334 2.95597906 5.97835988 10.16451428 10.14020963ZM77.30234015 76.56363926c-16.308878 30.0975163-6.06255351 73.3908251 10.22853243 98.81545454-22.5172605-18.34000155-30.88067299-72.29345261-15.4966502-100.78907271l5.26811777 1.97361817Z"/><path d="M129.76000936 120.73319334c.80094792.4624275 1.13946896 1.72580386 2.40284464 1.387283-2.31213875 4.0047418-12.20453435 10.04060757-16.79561078 10.59374122 2.8652735.5863347 1.940418 2.18823142 4.00474222 2.312139-3.11308729 3.54231335-14.82199287 5.32562271-16.88631758 5.201716.33852129 1.26337593-.9248555 1.60189672.67704121 2.52675222-2.06432421-.12390757-3.32770014.21461372-8.25729786-.49562857-7.79486986-1.29657736-18.54571885-8.57151348-18.4218117-10.63583795.462428-.80094879 1.72580385-1.13946896 2.9891802-1.47799 5.14421086 4.03794324 10.41232814 6.01156045 17.7447705 8.10908573-3.20379343-1.849711-12.60055964-4.0711425-15.21801828-8.78612695.9248555-1.60189672 4.25255642-1.81650998 7.24173614-3.29449912 7.67096279 3.3609007 12.01422493 6.936416 21.53489872 7.09352328-7.33244236-2.09752529-12.26203922-2.80776707-19.0081465-7.7705645 5.17741113-3.41840714 14.60737873-8.65332414 20.2140168-5.41633014 4.12864893.24781429 7.45634994.03320107 10.78405008-.18141264-7.79487011-1.29657693-13.18689472-1.20587036-13.062988-3.27019507-.33852018-1.26337586 3.57551528-4.34326215 10.94115841-9.70208628 3.66622119 1.04876264 6.1929734.37172142 10.78405003-.18141256-2.52675216.67704113-7.45634989-.03320116-9.0582466-.95805666 3.91403541-3.0798862 9.46316836-12.6912664 11.6514004-14.63168348-3.327701.21461321-8.19979274 12.35274564-12.32844162 12.10493127.58633528-2.8652725 1.63509749-6.53149392 3.60871601-11.79961148-2.3121387 4.0047417-3.82332952 8.47191099-5.33451943 12.9390807-.9248555 1.6018967-3.91403547 3.07988628-5.30131872 5.48273135-2.15503122-5.51593243-1.90721694-9.64458136.40492176-13.64932306-7.15102966 8.6865247 3.84763388 11.83281263-10.2973171 19.68518841-1.72580425 1.13946863-3.45160767 2.27893785-4.71498446 2.61745864-2.15503036-5.51593193-1.65940159-13.77323014 1.11516486-18.5789202-4.71498369 2.6174585-3.85652943 15.9282609-4.10434458 20.05690934-3.91403435 3.07988636-8.62901885 5.69734508-11.0318635 4.31006208.71024194-4.92959792 4.07114309-12.60056046 6.04476118-17.86867827-3.69942195 6.40758677-6.93641595 12.01422485-8.57151374 18.54571928-2.52675221.67704122-4.71498357 2.61745811-7.24173578 3.29449933-2.03112356-7.5802566 3.05558144-16.3906881 5.83014794-21.19637825.67704121 2.52675221 1.13946871 1.72580429 2.27893784 3.45160766.37172146-6.19297326 6.59789554-13.2776013 10.97435876-17.15843595.3385206 1.26337611-.5863349 2.86527283 1.01556182 3.79012833 2.31213875-4.0047418 6.10226707-5.02030361 8.75292638-7.7616692.33852096 1.2633763.67704113 2.52675216 1.47798992 2.98918016 1.849711-3.20379343 5.6398389-4.2193555 10.69334327-5.57343785-.12390752 2.06432413 1.13946902 1.72580377 1.01556144 3.79012798 2.65065975-2.74136534 7.36564314-5.35882413 10.69334414-5.57343735.33852018 1.26337586 1.13946897 1.72580386 1.47798914 2.98917972 2.18823204-1.94041707 3.45160772-2.27893793 8.3812054-1.56869556.09070593 5.3920247-.95805628 9.05824613-2.22143282 9.3967665.33852104 1.26337635 2.06432447.12390713 2.86527326.58633513-.49562852 8.25729778-6.35008174 9.14895221-1.08196385 11.12257035-1.17266973 5.73054556-.83414869 6.99392192-8.66221957 13.15369441Z"/></g></svg>