<svg width="88" height="90" xmlns="http://www.w3.org/2000/svg"><path d="M83.662655 22.6781208c4.422009 9.2959562 5.515217 20.5626122 3.078306 31.7249272C82.238308 75.029294 66.791005 90 50.010576 90c-1.981955 0-3.967632-.214986-5.902117-.639507L25.63803 83.690324C7.800711 79.777884-3.851111 57.865739 1.174554 34.845421 6.199933 11.8245235 24.441309-3.2972427 42.278345.6160595l20.291671 4.1758701c9.060787 1.9873243 16.551665 8.339418 21.092639 17.8861912Zm.217899 31.0974572C88.632843 32.00647 78.811423 11.35901 61.944065 7.6592605c-.500139-.1097857-1.001418-.1989337-1.502407-.2769007-1.258777-.1952071-2.51927-.2949602-3.774611-.2949602-15.103305 0-29.61125 13.7862796-33.868839 33.2891554-4.278463 19.596901 3.257606 38.277674 17.108422 44.511672 1.535293.690814 3.144649 1.235729 4.827782 1.604933 1.756338.385255 3.520684.571577 5.276164.571577 15.103584 0 29.612391-13.786283 33.869978-33.289159ZM47.912282 36.939161c-1.073579 3.97135-4.447674 6.515701-7.536251 5.682968-3.088578-.832733-4.722057-4.727211-3.648479-8.69856 1.073579-3.971349 4.447674-6.515701 7.536251-5.682968 3.088578.832733 4.722058 4.727211 3.648479 8.69856Zm13.771763.198749c-2.72279-.817062-4.162969-4.63819-3.216469-8.534512.946499-3.8963172 3.920883-6.3926281 6.643956-5.5755634 2.722798.8170668 4.162969 4.6381954 3.216474 8.5345124-.946496 3.896321-3.92117 6.39263-6.643961 5.575563ZM48.760532 73.524223c-6.164985-1.761299-10.609971-7.355091-12.462189-14.569028l38.78453-10.723151c-.180164 1.646041-.475251 3.312566-.901705 4.983932-3.621301 14.191663-15.002751 23.284143-25.420636 20.308247Z" fill="#000" fill-rule="nonzero"/></svg>