<svg width="60" height="60" xmlns="http://www.w3.org/2000/svg"><g fill="none" fill-rule="evenodd"><path d="M0 .35h59.955v59.605H0z"/><path d="M29.977 1.62C14.154 1.62 1.28 14.42 1.28 30.153s12.874 28.531 28.697 28.531c15.825 0 28.698-12.799 28.698-28.531S45.802 1.62 29.977 1.62m0 58.335C13.447 59.956 0 46.586 0 30.152 0 13.719 13.447.349 29.977.349s29.979 13.37 29.979 29.803c0 16.434-13.448 29.804-29.979 29.804" fill="#231F20"/><path d="M29.156 28.925c0 1.86-.396 3.385-1.188 4.576-.893 1.35-2.192 2.028-3.9 2.028-1.99 0-3.37-.847-4.14-2.544-.53-1.172-.792-2.958-.792-5.361v-11.69c0-1.07.292-2.138.884-3.21.891-1.636 2.242-2.452 4.048-2.452 1.929 0 3.312.726 4.145 2.18.668 1.112.981 2.595.943 4.453 0 .606-.012 1.068-.03 1.393-.02.322-.174.504-.458.545-.284.041-.792.05-1.521.028-1.017-.038-1.472-.059-1.37-.059-.368 0-.56-.17-.581-.514v-2.15c-.12-1.05-.496-1.575-1.128-1.575-.831 0-1.247 1.798-1.247 5.39v8.601c0 .565.08 1.1.242 1.604.225.708.558 1.06 1.005 1.06.794 0 1.19-1.06 1.19-3.179v-.85c-.02-.34-.032-.543-.032-.605 0-.362.142-.545.426-.545 1.282 0 2.296.012 3.049.033.305 0 .455.168.455.512.02.526.02 1.304 0 2.331M12.864 17.243h.969l1.774 2.266h.01v-2.266h.969v3.705h-.969l-1.774-2.27h-.01v2.27h-.969zM12.866 22.547h1.162l.697 1.008.697-1.008h1.163l-1.374 1.928v1.779h-.971v-1.779zM15.995 28.925a1.117 1.117 0 0 0-.9-.432c-.629 0-1.052.478-1.052 1.087 0 .62.428 1.067 1.067 1.067.335 0 .67-.161.885-.416v1.223c-.341.104-.587.182-.906.182-.55 0-1.073-.208-1.481-.578-.435-.39-.634-.9-.634-1.483 0-.535.204-1.051.582-1.436a2.143 2.143 0 0 1 1.501-.635c.33 0 .634.073.938.198v1.223ZM17.533 41.207c.474 0 .863.1 1.166.3.346.225.518.553.518.983 0 .502-.216.85-.648 1.045-.3.133-.755.2-1.368.2h-2.984c-.273 0-.546-.074-.82-.223-.416-.226-.625-.566-.625-1.022 0-.487.185-.835.556-1.045.284-.169.663-.249 1.136-.238.155 0 .274.003.356.007.082.006.129.044.14.116.01.072.012.2.007.384-.01.256-.015.372-.015.346 0 .092-.044.14-.132.146h-.549c-.268.03-.402.125-.402.284 0 .21.459.315 1.376.315h2.195c.144 0 .28-.02.41-.061.18-.057.27-.141.27-.254 0-.2-.27-.3-.811-.3h-.217a4.711 4.711 0 0 1-.154.008c-.093 0-.14-.036-.14-.108 0-.323.003-.578.009-.768 0-.077.043-.115.13-.115.135-.005.332-.005.596 0M17.036 38.787c-.43.005-.671.029-.842.045-.266.025-.667.057-.667.135 0 .07.367.107.672.153.165.025.528.059.837.07.016.001.018-.067.027-.121a.585.585 0 0 0 .003-.15c-.005-.051-.01-.132-.03-.132m2.132-1.281c.031-.005.046.018.046.069v.4c-.004.194-.007.363-.007.507 0 .045-.167.105-.502.176-.253.052-.47.09-.65.115-.036.006-.054.034-.054.085v.3c0 .036.02.058.055.068.313.047.676.108 1.088.185.047.02.07.043.07.07v.944c0 .083-.03.116-.092.1l-3.169-.522c-2.035-.343-3.055-.549-3.06-.615a7.428 7.428 0 0 1 0-.83c.005-.061 1.025-.25 3.06-.569 1.072-.163 2.144-.325 3.215-.483M27.175 40.247c.27-.005-1.717-.019-5.962-.039-.136 0-.211-.041-.227-.124a2.48 2.48 0 0 1 0-.783.21.21 0 0 1 .164-.178c.78-.17 1.663-.37 2.65-.596.078-.022.117-.053.117-.094 0-.03-.054-.046-.163-.046h-1.1c-.621-.005-1.104-.008-1.45-.008-.104 0-.169-.065-.195-.194a1.415 1.415 0 0 1-.023-.35l.008-.316c-.005-.104.054-.158.179-.163.725-.02 1.82-.026 3.281-.016 1.416.01 2.315.029 2.699.055.124.01.189.044.194.1a7.9 7.9 0 0 1 0 .504l-.016.419c0 .072-.055.118-.163.14-1.258.257-2.068.439-2.433.541-.14.042-.21.075-.21.102 0 .036.08.048.242.038.423-.02 1.225-.03 2.408-.03.12 0 .177.05.172.154v.721c-.005.109-.063.163-.172.163M21.155 47.382c-.095-.006-.142-.073-.142-.203l-.016-1.028c-.01-.436-.005-.74.016-.91.01-.08.073-.118.188-.118a377.09 377.09 0 0 1 5.984-.023c.147 0 .212.047.196.14-.015.109-.015.389 0 .84.005.069-.02.107-.078.117a1.443 1.443 0 0 0-.149-.007c-.23.015-.936.018-2.12.007a83.373 83.373 0 0 0-2.682.008c-.12.006-.182.065-.187.18v.81c0 .124-.048.187-.143.187-.183.004-.473.004-.867 0M23.179 42.885c.433-.006.676-.03.849-.046.269-.025.672-.058.672-.136 0-.07-.37-.108-.677-.154a8.913 8.913 0 0 0-.844-.071c-.017-.001-.019.067-.027.122a.583.583 0 0 0-.004.151c.005.052.01.134.031.134m-2.15 1.292c-.032.005-.048-.019-.048-.07v-.403c.005-.196.008-.367.008-.511 0-.047.169-.106.507-.178.254-.052.473-.091.654-.117.037-.005.055-.033.055-.085v-.302c0-.036-.019-.06-.055-.07a29.557 29.557 0 0 1-1.098-.186c-.047-.02-.07-.044-.07-.07v-.953c0-.083.03-.116.093-.101 1.063.176 2.128.352 3.196.527 2.053.347 3.082.553 3.087.62.015.28.015.558 0 .837-.005.062-1.035.253-3.087.574-1.08.165-2.162.327-3.243.488M37.893 44.274c.465 0 .833.118 1.102.355.27.236.405.57.405 1.001 0 .374-.145.693-.437.955-.312.278-.716.412-1.213.401-.084 0-.222-.002-.413-.007-.11-.005-.167-.034-.167-.086 0-.053-.005-.201-.015-.446-.01-.245-.016-.393-.016-.445 0-.053.069-.08.206-.08h.389c.381 0 .571-.102.571-.308 0-.162-.129-.249-.388-.26l-.444-.015c-.132-.005-.337.131-.612.41-.465.468-.727.725-.785.773-.328.278-.626.418-.896.418h-.675c-.48 0-.864-.113-1.15-.34-.312-.241-.473-.593-.484-1.056-.005-.378.127-.681.397-.907.254-.21.59-.315 1.007-.315h.786c.079 0 .121.028.127.086a7.55 7.55 0 0 1 0 .86c0 .068-.04.103-.12.103-.121.004-.333 0-.634-.016a.766.766 0 0 0-.329.059c-.109.045-.163.103-.163.177 0 .206.175.308.523.308h.412c.165 0 .397-.14.699-.419l.841-.788c.35-.278.659-.418.928-.418h.548ZM33.89 40.754c.075 0 .111.046.111.135 0 .037-.002.115-.007.236v.284c0 .111.04.165.119.165l5.123-.015c.086 0 .13.03.136.087.026.189.024.488-.008.899-.006.068-.05.102-.135.102l-5.124.008c-.075 0-.111.032-.111.095v.583c-.006.085-.043.127-.112.127.058 0-.05.005-.325.016-.18.01-.32.005-.42-.016-.138-.021-.207-.07-.207-.142-.004-.652-.004-1.465 0-2.437 0-.074.048-.113.143-.119.328-.01.6-.013.817-.008M34.39 38.223c-.349 0-.516.116-.5.347.011.052.016.092.016.118 0 .047.045.071.134.071h1.39c.148 0 .224-.036.229-.11a.252.252 0 0 0 0-.095c0-.115-.058-.195-.174-.236-.17-.064-.534-.095-1.095-.095m4.84-1.136c.115-.026.176 0 .181.08.011.1.009.407-.007.922 0 .058-.072.092-.215.102-.359.026-.759.04-1.198.04-.798 0-1.197.14-1.197.418a.146.146 0 0 0 0 .094c.016.037.074.055.174.055.83 0 1.56.003 2.19.009.137 0 .209.029.214.086.032.284.036.555.016.813-.006.063-.083.094-.23.094h-6.1c-.096 0-.143-.047-.143-.143 0-.29-.003-.688-.008-1.19 0-.328.068-.606.205-.833.154-.249.357-.373.61-.373l1.562.008c.259 0 .48.075.665.23a.8.8 0 0 1 .27.353c.015.043.031.063.047.063.01 0 .024-.02.04-.063a.893.893 0 0 1 .198-.316c.216-.246.742-.37 1.577-.37.533 0 .916-.026 1.149-.08M41.25 39.563c-.061 0-.095-.041-.1-.124-.037-.711-.031-1.358.015-1.94.006-.057.054-.085.147-.085h6.052c.057 0 .085.027.085.085.005.395.002 1.034-.008 1.918 0 .082-.03.123-.093.123h-.418a23.673 23.673 0 0 0-.46-.008c-.066 0-.098-.028-.098-.084v-.88c0-.076-.028-.114-.085-.114l-.55-.008c-.29-.005-.506-.005-.651 0-.057 0-.09.03-.1.092-.016.107-.02.343-.008.71 0 .066-.031.102-.093.107a6.503 6.503 0 0 1-.52-.007 24.07 24.07 0 0 0-.519-.016c-.073 0-.108-.028-.108-.085v-.693c0-.051-.04-.083-.116-.092-.215-.026-.62-.031-1.218-.016-.067 0-.105.047-.115.139v.847c0 .082-.034.124-.101.124-.419 0-.731.002-.938.007M41.25 42.63c-.061 0-.095-.042-.1-.125-.037-.711-.031-1.358.015-1.94.006-.057.054-.085.147-.085h6.052c.057 0 .085.028.085.084a92.53 92.53 0 0 1-.008 1.919c0 .082-.03.122-.093.122h-.418a31.774 31.774 0 0 0-.46-.007c-.066 0-.098-.028-.098-.085v-.879c0-.077-.028-.114-.085-.114l-.55-.008c-.29-.005-.506-.005-.651 0-.057 0-.09.03-.1.092-.016.107-.02.343-.008.71 0 .066-.031.102-.093.107a6.612 6.612 0 0 1-.52-.008c-.294-.01-.467-.015-.519-.015-.073 0-.108-.029-.108-.085v-.693c0-.052-.039-.082-.116-.093-.215-.026-.62-.03-1.218-.015-.067 0-.105.047-.115.139v.847c0 .082-.034.123-.101.123-.419 0-.731.002-.938.008M46.503 46.113c-.072 0-.108-.044-.108-.131 0-.036.003-.113.008-.231v-.278c0-.107-.039-.162-.116-.162l-5.005.015c-.083 0-.127-.027-.132-.084-.026-.184-.023-.477.007-.878.006-.067.05-.1.133-.1l5.005-.008c.072 0 .108-.03.108-.092v-.57c.005-.083.041-.123.109-.123-.057 0 .049-.006.318-.016a1.65 1.65 0 0 1 .41.016c.134.02.201.066.201.139.006.635.006 1.43 0 2.38 0 .071-.046.11-.139.115-.32.01-.586.013-.799.008M41.32 24.427c-.088.03-.135.018-.14-.039v-1.061c0-.04.037-.072.108-.093.238-.067.797-.211 1.679-.433.083-.021.127-.037.132-.047 0-.005-.044-.01-.132-.015-.371-.021-.928-.024-1.67-.009-.078 0-.117-.028-.117-.084v-.76c0-.066.05-.1.148-.1h6.035c.073 0 .108.025.108.077.006.206.006.484 0 .834-.004.052-.04.077-.108.077a48.302 48.302 0 0 0-1.655-.03c-.036 0-.054.007-.054.023.005.015.03.028.07.038.324.077.87.217 1.639.417.072.02.108.054.108.1a9.093 9.093 0 0 0 0 .503v.402c0 .071-.035.107-.108.107a.153.153 0 0 1-.046-.007 34.465 34.465 0 0 0-1.428-.618c-.75-.309-1.14-.459-1.171-.448-.874.288-2.007.677-3.398 1.166M41.257 27.415c-.061 0-.095-.04-.1-.124a14.894 14.894 0 0 1 .015-1.945c.006-.057.054-.085.148-.085h6.066c.057 0 .085.028.085.085.006.396.003 1.037-.007 1.923 0 .082-.03.123-.094.123h-.419a32.931 32.931 0 0 0-.461-.008c-.065 0-.098-.028-.098-.084v-.882c0-.076-.029-.115-.085-.115l-.552-.007c-.29-.006-.507-.006-.652 0-.058 0-.091.03-.101.092-.016.107-.018.344-.008.712 0 .066-.03.101-.093.107a6.586 6.586 0 0 1-.52-.008c-.296-.01-.47-.015-.52-.015-.074 0-.11-.029-.11-.085v-.695c0-.052-.038-.083-.115-.093-.215-.026-.623-.03-1.222-.016-.067 0-.105.046-.116.14v.849c0 .082-.034.123-.1.123-.42 0-.734.003-.94.008M46.547 30.93c-.072 0-.109-.045-.109-.133 0-.035.003-.113.009-.231v-.278c0-.109-.04-.163-.117-.163l-5.018.016c-.083 0-.126-.028-.132-.085-.026-.185-.023-.479.008-.88.006-.067.05-.1.133-.1l5.017-.008c.072 0 .109-.031.109-.093v-.572c.005-.082.04-.123.109-.123-.058 0 .049-.005.318-.016.175-.01.313-.005.411.016.135.02.202.067.202.14.006.637.006 1.433 0 2.385 0 .073-.047.11-.14.116-.321.01-.587.013-.8.008M39.143 27.56c.087 0 .142.002.163.007.06.015.095.046.1.092.005.021-.002.192-.018.808 0 .082-.056.126-.17.13-.134.011-.372.014-.712.008-.227 0-.524-.002-.89-.007l-.566-.008c-.108 0-.467-.009-.533.012-.028.008-.14.083.488.228.221.051.612.126 1.104.216.605.111.949.163 1.097.198.137.032.178.108.193.183.016.074.007-.003.007.14-.005.232-.007.126-.007.12 0 .112-.073.189-.218.219-.243.052-.39.075-.891.17-.543.102-1.196.23-1.264.243-.554.104-.551.215-.504.227.043.012.316.025.539.026.17 0 1.919.01 2.126.005.135-.005.208.034.219.116v.746c0 .082-.088.128-.263.139-.306.02-.74.03-1.305.03-.646 0-1.593-.015-2.84-.046a64.672 64.672 0 0 0-1.754-.031.318.318 0 0 1-.124-.007c-.057-.016-.082-.044-.077-.085.02-.278.025-.57.015-.878 0-.051.057-.097.17-.138.16-.057.967-.291 2.428-.738.13-.041.324-.09.324-.116 0-.032-.192-.078-.322-.113-.611-.19-1.432-.421-2.46-.719-.109-.03-.16-.09-.155-.177v-.808c0-.072.072-.108.217-.108l2.685-.062c1.48-.03 2.546-.038 3.198-.023M34.51 21.192c-.34 0-.502.113-.486.338.01.052.014.09.014.116 0 .046.044.069.131.069h1.357c.143 0 .219-.036.223-.107a.241.241 0 0 0 0-.093c0-.113-.056-.19-.17-.231-.164-.061-.521-.092-1.068-.092m4.723-1.109c.113-.025.172 0 .177.077.011.098.009.398-.006.9 0 .057-.07.09-.21.1-.35.027-.74.04-1.169.04-.78 0-1.17.135-1.17.408a.136.136 0 0 0 0 .091c.017.037.073.055.171.055.81 0 1.522.002 2.137.007.134 0 .204.028.209.085.032.277.036.541.015.793-.005.061-.08.092-.223.092H33.21c-.093 0-.139-.046-.139-.14 0-.284-.003-.671-.007-1.161 0-.32.066-.592.2-.813.15-.243.348-.364.596-.364l1.523.007a.99.99 0 0 1 .65.223c.129.103.216.218.262.347.016.04.032.061.046.061.012 0 .025-.02.04-.061a.88.88 0 0 1 .193-.308c.21-.241.724-.362 1.539-.362.52 0 .894-.025 1.121-.077M37.23 24.946c-.43.005-.673.029-.843.045-.267.024-.668.057-.668.135 0 .07.367.108.673.154.164.024.53.058.839.07.015 0 .018-.068.025-.121a.595.595 0 0 0 .004-.15c-.005-.052-.01-.133-.03-.133m2.137-1.284c.03-.004.046.018.046.07v.4c-.006.195-.007.364-.007.507 0 .047-.168.106-.505.177-.252.052-.47.09-.65.116-.036.005-.053.034-.053.085v.3c0 .036.018.06.054.069.314.047.677.108 1.09.185.047.02.07.044.07.07v.946c0 .082-.03.116-.092.1l-3.174-.523c-2.039-.344-3.061-.55-3.067-.616a7.82 7.82 0 0 1 0-.831c.006-.062 1.028-.252 3.067-.57 1.073-.165 2.147-.326 3.22-.485" fill="#231F20"/></g></svg>